ffmpeg version 3.4.8-0ubuntu0.2 Copyright (c) 2000-2020 the FFmpeg developers
  built with gcc 7 (Ubuntu 7.5.0-3ubuntu1~18.04)
  configuration: --prefix=/usr --extra-version=0ubuntu0.2 --toolchain=hardened --libdir=/usr/lib/x86_64-linux-gnu --incdir=/usr/include/x86_64-linux-gnu --enable-gpl --disable-stripping --enable-avresample --enable-avisynth --enable-gnutls --enable-ladspa --enable-libass --enable-libbluray --enable-libbs2b --enable-libcaca --enable-libcdio --enable-libflite --enable-libfontconfig --enable-libfreetype --enable-libfribidi --enable-libgme --enable-libgsm --enable-libmp3lame --enable-libmysofa --enable-libopenjpeg --enable-libopenmpt --enable-libopus --enable-libpulse --enable-librubberband --enable-librsvg --enable-libshine --enable-libsnappy --enable-libsoxr --enable-libspeex --enable-libssh --enable-libtheora --enable-libtwolame --enable-libvorbis --enable-libvpx --enable-libwavpack --enable-libwebp --enable-libx265 --enable-libxml2 --enable-libxvid --enable-libzmq --enable-libzvbi --enable-omx --enable-openal --enable-opengl --enable-sdl2 --enable-libdc1394 --enable-libdrm --enable-libiec61883 --enable-chromaprint --enable-frei0r --enable-libopencv --enable-libx264 --enable-shared
  libavutil      55. 78.100 / 55. 78.100
  libavcodec     57.107.100 / 57.107.100
  libavformat    57. 83.100 / 57. 83.100
  libavdevice    57. 10.100 / 57. 10.100
  libavfilter     6.107.100 /  6.107.100
  libavresample   3.  7.  0 /  3.  7.  0
  libswscale      4.  8.100 /  4.  8.100
  libswresample   2.  9.100 /  2.  9.100
  libpostproc    54.  7.100 / 54.  7.100
[rawvideo @ 0x55555832ca20] Estimating duration from bitrate, this may be inaccurate
Input #0, rawvideo, from '../../SVC-Encoder-20220109T061506Z-001/SVC-Encoder/Dataset/RollerCoaster/6f_2x2/tile_yuv/f1_t0_480x480.yuv':
  Duration: 00:00:10.00, start: 0.000000, bitrate: 82944 kb/s
    Stream #0:0: Video: rawvideo (I420 / 0x30323449), yuv420p, 480x480, 82944 kb/s, 30 tbr, 30 tbn, 30 tbc
Stream mapping:
  Stream #0:0 -> #0:0 (rawvideo (native) -> h264 (libx264))
Press [q] to stop, [?] for help
[libx264 @ 0x555558339c60] using cpu capabilities: MMX2 SSE2Fast LZCNT SSSE3 SSE4.2 AVX
[libx264 @ 0x555558339c60] profile High, level 3.0
Output #0, rawvideo, to 'RollerCoaster_f1_t0_480x480_x264_QP_40.h264':
  Metadata:
    encoder         : Lavf57.83.100
    Stream #0:0: Video: h264 (libx264), yuv420p, 480x480, q=-1--1, 30 fps, 30 tbn, 30 tbc
    Metadata:
      encoder         : Lavc57.107.100 libx264
    Side data:
      cpb: bitrate max/min/avg: 0/0/0 buffer size: 0 vbv_delay: -1
frame=  148 fps=0.0 q=46.0 PSNR=Y:nan U:nan V:nan *:nan size=      21kB time=00:00:03.50 bitrate=  48.2kbits/s speed=6.94x    frame=  290 fps=289 q=46.0 PSNR=Y:nan U:nan V:nan *:nan size=      41kB time=00:00:08.23 bitrate=  41.2kbits/s speed= 8.2x    frame=  300 fps=262 q=46.0 LPSNR=Y:inf U:inf V:inf *:inf size=      52kB time=00:00:09.93 bitrate=  42.9kbits/s speed=8.66x    
video:52kB audio:0kB subtitle:0kB other streams:0kB global headers:0kB muxing overhead: 0.000000%
[libx264 @ 0x555558339c60] frame I:2     Avg QP:38.21  size:  4378  PSNR Mean Y:32.59 U:42.36 V:45.38 Avg:34.19 Global:34.10
[libx264 @ 0x555558339c60] frame P:76    Avg QP:40.01  size:   370  PSNR Mean Y:31.71 U:41.86 V:44.50 Avg:33.31 Global:33.29
[libx264 @ 0x555558339c60] frame B:222   Avg QP:45.51  size:    74  PSNR Mean Y:31.48 U:41.81 V:44.48 Avg:33.09 Global:33.08
[libx264 @ 0x555558339c60] consecutive B-frames:  1.0%  0.7%  1.0% 97.3%
[libx264 @ 0x555558339c60] mb I  I16..4: 32.7% 64.6%  2.7%
[libx264 @ 0x555558339c60] mb P  I16..4:  0.5%  0.5%  0.0%  P16..4: 19.3%  0.7%  0.1%  0.0%  0.0%    skip:78.9%
[libx264 @ 0x555558339c60] mb B  I16..4:  0.0%  0.0%  0.0%  B16..8:  5.7%  0.1%  0.0%  direct: 0.0%  skip:94.2%  L0:40.5% L1:59.4% BI: 0.1%
[libx264 @ 0x555558339c60] 8x8 transform intra:60.1% inter:92.0%
[libx264 @ 0x555558339c60] coded y,uvDC,uvAC intra: 33.3% 27.5% 1.1% inter: 0.4% 0.2% 0.0%
[libx264 @ 0x555558339c60] i16 v,h,dc,p: 22% 29% 28% 21%
[libx264 @ 0x555558339c60] i8 v,h,dc,ddl,ddr,vr,hd,vl,hu:  6% 26% 38%  3%  6%  5%  7%  3%  5%
[libx264 @ 0x555558339c60] i4 v,h,dc,ddl,ddr,vr,hd,vl,hu: 16% 20% 32%  4%  8%  5%  8%  3%  5%
[libx264 @ 0x555558339c60] i8c dc,h,v,p: 84% 10%  5%  1%
[libx264 @ 0x555558339c60] Weighted P-Frames: Y:0.0% UV:0.0%
[libx264 @ 0x555558339c60] ref P L0: 69.4% 13.4% 12.4%  4.8%
[libx264 @ 0x555558339c60] ref B L0: 74.0% 21.7%  4.3%
[libx264 @ 0x555558339c60] ref B L1: 75.0% 25.0%
[libx264 @ 0x555558339c60] PSNR Mean Y:31.548 U:41.822 V:44.488 Avg:33.154 Global:33.138 kb/s:42.66
